<svg width="24" height="24" viewBox="0 0 24 24" fill="none" xmlns="http://www.w3.org/2000/svg">
<path d="M19.5 0C21.9844 0 24 2.01562 24 4.49999V19.5C24 21.9843 21.9844 24 19.5 24H16.5625V14.7031H19.6719L20.1406 11.0781H16.5625V8.76561C16.5625 7.71873 16.8438 7.01561 18.3594 7.01561L20.2656 7V3.76562C19.9375 3.71875 18.7969 3.62499 17.4844 3.62499C14.7187 3.62499 12.8125 5.31248 12.8125 8.40623V11.0781H9.68748V14.7031H12.8125V24H4.49999C2.01562 24 0 21.9843 0 19.5V4.49999C0 2.01562 2.01562 0 4.49999 0H19.5Z" fill="#75715E"/>
</svg>
