<svg width="28" height="26" viewBox="0 0 28 26" fill="none" xmlns="http://www.w3.org/2000/svg">
<path d="M1.62504 10.0313L14 25.8906L0.43753 16.0469C0.0625382 15.7656 -0.0937313 15.2813 0.0468976 14.8438L1.62504 10.0313ZM8.84379 10.0313H19.1563L14 25.8906L8.84379 10.0313ZM5.75004 0.468744L8.84379 10.0313H1.62504L4.7188 0.468744C4.89068 -0.015623 5.57818 -0.015623 5.75004 0.468744ZM26.375 10.0313L27.9531 14.8438C28.0938 15.2813 27.9375 15.7656 27.5625 16.0469L14 25.8906L26.375 10.0313ZM26.375 10.0313H19.1563L22.25 0.468771C22.4219 -0.0155957 23.1094 -0.0155957 23.2813 0.468771L26.375 10.0313Z" fill="#75715E"/>
</svg>
