<svg width="24" height="28" viewBox="0 0 24 28" fill="none" xmlns="http://www.w3.org/2000/svg">
<path d="M3.70311 22.0937H7.31248V11.25H3.70311V22.0937ZM7.54685 7.90625C7.53123 6.84375 6.76561 6.03126 5.53123 6.03126C4.29685 6.03126 3.48436 6.84375 3.48436 7.90625C3.48436 8.93749 4.2656 9.78124 5.48436 9.78124H5.49998C6.76561 9.78124 7.54685 8.93749 7.54685 7.90625ZM16.6875 22.0937H20.2969V15.875C20.2969 12.5469 18.5156 11 16.1406 11C14.2031 11 13.3437 12.0781 12.875 12.8281H12.9062V11.25H9.29685C9.29685 11.25 9.34371 12.2656 9.29685 22.0937H12.9062V16.0312C12.9062 15.7187 12.9218 15.3906 13.0156 15.1562C13.2812 14.5156 13.875 13.8437 14.875 13.8437C16.1719 13.8437 16.6875 14.8281 16.6875 16.2968V22.0937ZM24 6.49999V21.5C24 23.9843 21.9843 26 19.5 26H4.49999C2.01562 26 0 23.9843 0 21.5V6.49999C0 4.01562 2.01562 2 4.49999 2H19.5C21.9843 2 24 4.01562 24 6.49999Z" fill="#75715E"/>
</svg>
